<svg xmlns="http://www.w3.org/2000/svg" version="1.1" xmlns:xlink="http://www.w3.org/1999/xlink" xmlns:svgjs="http://svgjs.dev/svgjs" width="1440" height="300" preserveAspectRatio="none" viewBox="0 0 1440 300"><g mask="url(&quot;#SvgjsMask1067&quot;)" fill="none"><rect width="1440" height="300" x="0" y="0" fill="rgba(250, 208, 29, 1)"></rect><path d="M0,480.359C89.614,482.432,178.862,440.451,242.473,377.296C301.099,319.09,309.998,231.136,331.393,151.342C349.402,84.175,355.946,18.135,357.416,-51.389C359.174,-134.558,391.508,-229.362,340.836,-295.336C290.262,-361.183,189.248,-349.827,109.766,-373.828C29.54,-398.053,-45.376,-449.009,-128.315,-437.001C-216.046,-424.299,-296.697,-374.377,-353.943,-306.693C-410.848,-239.412,-426.797,-150.265,-443.937,-63.829C-461.962,27.069,-496.497,124.896,-456.06,208.276C-415.768,291.358,-314.665,318.932,-235.368,366.24C-158.942,411.836,-88.97,478.3,0,480.359" fill="#f3c605"></path><path d="M1440 702.188C1529.954 691.171 1628.186 760.345 1706.107 714.0699999999999 1783.975 667.826 1776.51 552.655 1822.8319999999999 474.83299999999997 1876.981 383.86199999999997 1991.855 324.915 2000.548 219.405 2009.46 111.23400000000001 1937.593 12.432000000000016 1867.774-70.668 1797.223-154.639 1712.125-246.65800000000002 1602.704-254.11900000000003 1494.745-261.48 1423.798-139.25900000000001 1320.199-108.00599999999997 1217.8220000000001-77.12200000000001 1075.4-157.365 1007.671-74.61500000000001 939.287 8.935000000000002 1033.388 133.665 1034.029 241.63 1034.5439999999999 328.486 996.185 410.317 1011.057 495.892 1029.223 600.4259999999999 1032.81 738.832 1128.4270000000001 784.818 1227.26 832.351 1331.144 715.519 1440 702.188" fill="#fbd63b"></path></g><defs><mask id="SvgjsMask1067"><rect width="1440" height="300" fill="#ffffff"></rect></mask></defs></svg>