<svg xmlns="http://www.w3.org/2000/svg" version="1.1" xmlns:xlink="http://www.w3.org/1999/xlink" xmlns:svgjs="http://svgjs.dev/svgjs" width="1440" height="300" preserveAspectRatio="none" viewBox="0 0 1440 300"><g mask="url(&quot;#SvgjsMask1070&quot;)" fill="none"><rect width="1440" height="300" x="0" y="0" fill="rgba(143, 209, 253, 1)"></rect><path d="M0,363.47C84.78,368.424,170.694,420.688,248.53,386.72C328.305,351.905,374.783,266.729,406.979,185.861C438.195,107.454,446.855,20.623,426.932,-61.384C408.02,-139.231,362.405,-210.161,298.903,-259.001C241.236,-303.353,165.063,-305.666,93.356,-317.94C29.827,-328.814,-34.635,-346.621,-95.891,-326.575C-156.297,-306.807,-196.663,-254.394,-240.744,-208.606C-287.283,-160.264,-336.553,-114.54,-360.403,-51.818C-388.25,21.414,-410.958,102.187,-387.329,176.887C-362.693,254.771,-304.134,323.276,-230.54,358.728C-159.861,392.775,-78.318,358.894,0,363.47" fill="#64bffc"></path><path d="M1440 757.443C1527.79 779.058 1637.335 770.105 1700.623 705.538 1764.595 640.273 1733.0149999999999 531.298 1749.734 441.451 1761.833 376.432 1787.048 316.463 1785.326 250.35 1783.425 177.334 1785.934 96.87 1739.297 40.65699999999998 1692.4569999999999-15.800000000000011 1611.9279999999999-25.237000000000023 1541.037-44.101 1471.881-62.50400000000002 1402.268-81.418 1332.028-67.719 1257.623-53.206999999999994 1185.624-20.687000000000012 1134.411 35.20600000000002 1082.4859999999999 91.876 1064.461 168.653 1046.887 243.47899999999998 1027.799 324.753 986.154 415.919 1028.036 488.13800000000003 1070.153 560.7629999999999 1180.316 548.795 1250.587 594.732 1321.696 641.217 1357.509 737.1320000000001 1440 757.443" fill="#bae3fe"></path></g><defs><mask id="SvgjsMask1070"><rect width="1440" height="300" fill="#ffffff"></rect></mask></defs></svg>